<svg width="200" height="40" viewBox="0 0 200 40" fill="none" xmlns="http://www.w3.org/2000/svg">
  <!-- D icon -->
  <g transform="translate(0, 2) scale(0.07)">
    <path d="M245.031 119H121.122C119.953 119 119.004 119.949 119.004 121.118V219.088C119.004 220.258 119.953 221.207 121.122 221.207H162.431V221.249H244.223C268.552 221.249 283.098 234.222 283.098 256C283.098 277.735 268.552 290.751 244.223 290.751H223.339C222.5 290.747 222.5 290.751 221.212 290.751C219.558 290.747 220.259 290.747 219.085 290.747H189.274C188.1 290.747 187.147 291.699 187.147 292.873V290.751V322.733C187.147 323.911 188.1 324.864 189.278 324.864H221.216H245.418C289.695 324.864 319.809 296.918 319.809 256C319.809 215.039 289.695 187.094 245.418 187.094H155.2C154.031 187.094 153.078 186.145 153.078 184.971V155.184C153.078 154.015 154.026 153.062 155.2 153.062H242.696C310.409 153.062 353.835 194.533 353.835 255.996C353.835 317.416 310.409 358.93 242.696 358.93H155.217C154.035 358.93 153.074 357.968 153.074 356.786V335.961V290.747V292.865C153.074 291.695 152.125 290.747 150.951 290.747H121.122C119.953 290.747 119 291.695 119 292.865L119 290.747V335.961V390.856C119 392.039 119.961 393 121.144 393H245.026C333.113 393 393 337.407 393 255.996C393 174.584 333.117 119 245.031 119Z" fill="white"/>
  </g>
  <!-- AKOTY text -->
  <text x="42" y="28" font-family="system-ui, -apple-system, sans-serif" font-size="22" font-weight="600" letter-spacing="3" fill="white">AKOTY</text>
</svg>
